<svg xmlns="http://www.w3.org/2000/svg" viewBox="0 0 64 64" role="img" aria-label="SayurSehat">
  <rect width="64" height="64" rx="16" fill="#10b981"/>
  <path
    d="M47.7 14.4c-10.9.2-19.2 3.2-24.7 8.8-4.5 4.6-6.4 10.5-5.4 16.3l-5 5a3 3 0 0 0 4.2 4.2l5-5c5.8 1 11.8-.9 16.3-5.4 5.6-5.5 8.6-13.8 8.8-24.7 0-.3-.1-.6-.3-.8-.2-.2-.5-.3-.8-.3z"
    fill="none"
    stroke="#ffffff"
    stroke-width="4"
    stroke-linecap="round"
    stroke-linejoin="round"
  />
  <path
    d="M21.8 39.6c7.7-.4 13.7-4.4 18-12"
    fill="none"
    stroke="#ffffff"
    stroke-width="4"
    stroke-linecap="round"
  />
</svg>
